<svg xmlns="http://www.w3.org/2000/svg" viewBox="0 0 363.79 366.98"><defs><style>.cls-1{fill:#9745ff;}.cls-2{fill:#00e6c1;}.cls-3{fill:#fff;}.cls-4{fill:#0f123b;}.cls-5{fill:#979699;}</style></defs><g id="Camada_2" data-name="Camada 2"><g id="Camada_1-2" data-name="Camada 1"><path class="cls-1" d="M212.74,151.61V134.19h63.94V31.5A31.5,31.5,0,0,0,245.18,0H118.61A31.5,31.5,0,0,0,87.38,27.46h63.56V44.88H87.12v102.7a31.49,31.49,0,0,0,31.49,31.49H245.18a31.5,31.5,0,0,0,31.23-27.46Z"/><path class="cls-2" d="M166.35,26.29a9.54,9.54,0,0,1,9.88,9.88,9.88,9.88,0,0,1-19.76,0A9.54,9.54,0,0,1,166.35,26.29Z"/><path class="cls-3" d="M176.23,152.78h-30.7c-18.06,0-25.6-9.13-25.6-24.22,0-9.66,3.08-16.35,10.09-20.28v-1.07c-7-3.93-10.09-10.62-10.09-20.29,0-15.08,7.54-24.21,25.6-24.21h30.7V80.13h-30.7c-6.69,0-10.83,2.86-10.83,9.45S138.84,99,145.53,99h30.7v17.43h-30.7c-6.69,0-10.83,2.86-10.83,9.45s4.14,9.45,10.83,9.45h30.7Z"/><path class="cls-2" d="M197.21,152.78a9.88,9.88,0,1,1,9.88-9.88A9.54,9.54,0,0,1,197.21,152.78Z"/><path class="cls-3" d="M189.36,116.37h30.7c18.06,0,25.6-9.14,25.6-24.22,0-9.67-3.08-16.36-10.09-20.29V70.8c7-3.93,10.09-10.63,10.09-20.29,0-15.09-7.54-24.22-25.6-24.22h-30.7V43.71h30.7c6.69,0,10.84,2.87,10.84,9.45s-4.15,9.46-10.84,9.46h-30.7V80h30.7c6.69,0,10.84,2.87,10.84,9.45S226.75,99,220.06,99h-30.7Z"/><path class="cls-4" d="M0,198.31a6.58,6.58,0,0,1,6.8-6.81,6.81,6.81,0,0,1,0,13.61A6.58,6.58,0,0,1,0,198.31Zm1,55.34V210.32H12.68v43.33Z"/><path class="cls-4" d="M21.08,253.65v-24.1c0-14.28,8.4-20.41,22-20.41s22,6,22,20.24v24.27H53.49V229.38c0-6.8-3.61-10.33-10.41-10.33s-10.33,3.61-10.33,10.5v24.1Z"/><path class="cls-4" d="M78.6,253.65V220.23H69v-9.91H78.6V198.73H90.19v11.59h11.09v9.91H90.19v33.42Z"/><path class="cls-4" d="M103,232c0-15.28,9.66-22.84,23.26-22.84,13.1,0,21.58,8.15,21.58,21.67a37.27,37.27,0,0,1-.25,4.28h-33c.76,7.22,5.37,11.09,11.59,11.09,3.78,0,7.14-1.6,8.9-4.46h11.34c-2.52,7.9-9.83,13.1-20.16,13.1C112,254.82,103,246.68,103,232Zm33.26-4.7c-.93-6.38-5.46-9.49-10.59-9.49s-9.74,3.36-10.83,9.49Z"/><path class="cls-4" d="M154.69,253.65V210.32h10.83l.84,6.63h.84c3-4.37,7.14-6.63,15-6.63v10.75a20.58,20.58,0,0,0-3.19-.17c-8.4,0-12.68,4.36-12.68,13.52v19.23Z"/><path class="cls-4" d="M192.39,253.65V220.23h-7.64v-9.91h7.64v-3.45c0-10.66,5.79-14.36,14-14.36a50.25,50.25,0,0,1,8.82,1.09v9a54.88,54.88,0,0,0-5.71-.5c-3.61,0-5.46,1.17-5.46,5.54v2.69h11.17v9.91H204.06v33.42Z"/><path class="cls-4" d="M216.49,232c0-15.37,9.32-22.84,19.82-22.84,6.64,0,11,2.35,14.28,6.89h.84l.84-5.71H263v43.33H252.27l-.84-5.8h-.84c-3.28,4.62-7.56,7-14.28,7C225.81,254.82,216.49,247.27,216.49,232Zm35.19,0c0-8.23-4.79-13.27-11.67-13.27-6.72,0-11.59,4.45-11.59,13.27s4.87,13.27,11.59,13.27C246.89,245.25,251.68,240.21,251.68,232Z"/><path class="cls-4" d="M269.73,232c0-15.45,9.83-22.84,23.26-22.84,10.25,0,19.91,5.54,20.92,17.13H302.74c-1.18-5.71-5.55-7.89-9.83-7.89-6.63,0-11.25,4.53-11.25,13.6s4.62,13.61,11.25,13.61c4.28,0,8.65-2.27,9.83-7.9h11.17c-1,11.51-10.67,17.13-20.92,17.13C279.56,254.82,269.73,247.43,269.73,232Z"/><path class="cls-4" d="M318.78,232c0-15.28,9.65-22.84,23.26-22.84,13.1,0,21.58,8.15,21.58,21.67a37.27,37.27,0,0,1-.25,4.28h-33c.76,7.22,5.38,11.09,11.59,11.09a10.21,10.21,0,0,0,8.91-4.46h11.33c-2.52,7.9-9.82,13.1-20.15,13.1C327.76,254.82,318.78,246.68,318.78,232Zm33.25-4.7c-.92-6.38-5.46-9.49-10.58-9.49s-9.74,3.36-10.83,9.49Z"/><path class="cls-4" d="M1,321.64V297.32c0-14.41,7.2-20.6,18.89-20.6,7.63,0,12.89,2.46,15.85,8.14h.85c3-5.59,8.3-8.14,15.76-8.14,11.78,0,19,6,19,20.43v24.49H59.57V297.15c0-6.87-3-10.43-8.72-10.43S42,290.37,42,297.32v24.32H30.34V297.15c0-6.87-3-10.43-8.82-10.43s-8.72,3.65-8.72,10.6v24.32Z"/><path class="cls-4" d="M78.13,299.77c0-15.42,9.75-23,23.47-23,13.22,0,21.78,8.22,21.78,21.87a38,38,0,0,1-.25,4.32H89.83c.76,7.29,5.42,11.19,11.69,11.19,3.81,0,7.2-1.61,9-4.49h11.44c-2.54,8-9.91,13.21-20.34,13.21C87.2,322.82,78.13,314.61,78.13,299.77ZM111.69,295c-.93-6.44-5.51-9.58-10.68-9.58s-9.83,3.39-10.93,9.58Z"/><path class="cls-4" d="M130.25,321.64V277.91h10.93l.85,6.7h.84c3-4.41,7.21-6.7,15.17-6.7v10.85a21,21,0,0,0-3.22-.17c-8.47,0-12.79,4.4-12.79,13.64v19.41Z"/><path class="cls-4" d="M159.06,299.77c0-15.59,9.91-23,23.47-23,10.34,0,20.09,5.6,21.1,17.29H192.36c-1.18-5.76-5.59-8-9.91-8-6.7,0-11.36,4.57-11.36,13.72s4.66,13.73,11.36,13.73c4.32,0,8.73-2.29,9.91-8h11.27c-1,11.61-10.76,17.28-21.1,17.28C169,322.82,159.06,315.37,159.06,299.77Z"/><path class="cls-4" d="M208.55,299.77c0-15.5,9.4-23,20-23,6.69,0,11.1,2.38,14.4,6.95h.85l.85-5.76H255.5v43.73H244.65l-.85-5.85H243c-3.3,4.66-7.62,7-14.4,7C218,322.82,208.55,315.2,208.55,299.77Zm35.5,0c0-8.3-4.83-13.38-11.77-13.38-6.78,0-11.7,4.49-11.7,13.38s4.92,13.39,11.7,13.39C239.22,313.16,244.05,308.08,244.05,299.77Z"/><path class="cls-4" d="M262.27,299.77c0-15.42,9.41-23,20-23,6.7,0,11.1,2.29,14.41,6.95h.84V261.13h11.7v60.51H298.37l-.85-5.85h-.84c-3.31,4.58-7.63,7-14.41,7C271.68,322.82,262.27,315.28,262.27,299.77Zm35.51,0c0-8.3-4.83-13.38-11.78-13.38-6.78,0-11.69,4.49-11.69,13.38s4.91,13.39,11.69,13.39C293,313.16,297.78,308.08,297.78,299.77Z"/><path class="cls-4" d="M316,299.77c0-15.59,10.08-23,23.89-23,14,0,23.9,7.46,23.9,23s-9.91,23.05-23.9,23.05C326.08,322.82,316,315.37,316,299.77Zm35.76,0c0-9.32-4.83-13.72-11.95-13.72S328,290.45,328,299.77s4.75,13.73,12,13.73C347,313.5,351.76,309,351.76,299.77Z"/><path class="cls-5" d="M.1,349C.1,341.76,4.69,338,10.6,338s10,4,10,10.66a12.51,12.51,0,0,1-.08,1.25H3.6c.32,4.58,3.22,7.16,7,7.16a6.14,6.14,0,0,0,5.55-3.18h3.5c-1.21,3.9-4.87,6-9,6C4,359.9.1,355.52.1,349ZM17,347.23c-.36-4-2.93-6.39-6.43-6.39a6.7,6.7,0,0,0-6.8,6.39Z"/><path class="cls-5" d="M29.58,359.34l-8.73-20.76h3.86l6.64,16.33h.4l6.64-16.33h3.74l-8.77,20.76Z"/><path class="cls-5" d="M42.33,349c0-7.2,4.58-10.94,10.5-10.94s10.05,4,10.05,10.66a12.51,12.51,0,0,1-.08,1.25h-17c.32,4.58,3.22,7.16,7,7.16a6.14,6.14,0,0,0,5.55-3.18h3.5c-1.21,3.9-4.87,6-9.05,6C46.27,359.9,42.33,355.52,42.33,349Zm16.85-1.73c-.36-4-2.94-6.39-6.43-6.39a6.7,6.7,0,0,0-6.8,6.39Z"/><path class="cls-5" d="M66.1,359.34V348c0-6.84,3.82-10,10.05-10s10.06,2.86,10.06,9.69v11.63h-3.5V347.71c0-4.74-2.58-6.67-6.56-6.67s-6.51,2.13-6.51,7v11.34Z"/><path class="cls-5" d="M93,359.34V341.6H87.89v-3H93V333h3.54v5.55h5.63v3H96.54v17.74Z"/><path class="cls-5" d="M102.73,349c0-7.4,4.59-10.94,10.86-10.94s10.86,3.54,10.86,10.94S120,359.9,113.59,359.9,102.73,356.36,102.73,349Zm18.14,0c0-5.43-3-8-7.28-8s-7.28,2.57-7.28,8,3,8,7.28,8S120.87,354.35,120.87,349Z"/><path class="cls-5" d="M138.52,367v-28.4h3.14l.4,3.18h.41A8.45,8.45,0,0,1,150,338c5.55,0,9.81,3.82,9.81,10.94S155.58,359.9,150,359.9a8.65,8.65,0,0,1-7.56-3.62h-.41V367Zm17.74-18c0-5.07-2.94-8-7.12-8s-7.16,2.69-7.16,8,3,8,7.16,8S156.26,354,156.26,349Z"/><path class="cls-5" d="M162.25,349c0-7.2,4.58-10.94,10.5-10.94s10.05,4,10.05,10.66a12.51,12.51,0,0,1-.08,1.25h-17c.32,4.58,3.22,7.16,7,7.16a6.14,6.14,0,0,0,5.55-3.18h3.5c-1.21,3.9-4.87,6-9.05,6C166.19,359.9,162.25,355.52,162.25,349Zm16.85-1.73c-.36-4-2.93-6.39-6.43-6.39a6.7,6.7,0,0,0-6.8,6.39Z"/><path class="cls-5" d="M186,359.34V338.58h3.13l.41,3.3h.4c1.53-2.25,4-3.3,8.12-3.3v3.3c-.52,0-1.08-.08-1.56-.08-4.87,0-7,2.7-7,7.56v10Z"/><path class="cls-5" d="M199,359.34V348c0-6.84,3.3-10,8.6-10,3.46,0,5.88,1.21,7.2,4h.41c1.28-2.69,3.7-4,7.08-4,5.34,0,8.6,2.86,8.6,9.69v11.63h-3.54V347.71c0-4.74-2-6.67-5.31-6.67s-5.35,2.13-5.35,7v11.34h-3.49V347.71c0-4.74-2.06-6.67-5.35-6.67s-5.31,2.13-5.31,7v11.34Z"/><path class="cls-5" d="M234.07,349c0-7.08,4.27-10.94,9.86-10.94a8.73,8.73,0,0,1,7.56,3.62h.4l.41-3.06h3.09v20.76H252.3l-.41-3.18h-.4a8.48,8.48,0,0,1-7.56,3.74C238.34,359.9,234.07,356.08,234.07,349Zm17.86,0c0-5.27-3-8-7.16-8s-7.12,2.89-7.12,8,3,8,7.12,8S251.93,354.23,251.93,349Z"/><path class="cls-5" d="M259.41,359.34V348c0-6.84,3.82-10,10.06-10s10,2.86,10,9.69v11.63H276V347.71c0-4.74-2.57-6.67-6.55-6.67s-6.52,2.13-6.52,7v11.34Z"/><path class="cls-5" d="M282.73,349c0-7.2,4.59-10.94,10.5-10.94s10.06,4,10.06,10.66a12.51,12.51,0,0,1-.08,1.25h-17c.33,4.58,3.22,7.16,7,7.16a6.13,6.13,0,0,0,5.55-3.18h3.5c-1.2,3.9-4.86,6-9,6C286.68,359.9,282.73,355.52,282.73,349Zm16.86-1.73c-.36-4-2.94-6.39-6.44-6.39a6.71,6.71,0,0,0-6.8,6.39Z"/><path class="cls-5" d="M306.5,359.34V348c0-6.84,3.82-10,10.06-10s10.05,2.86,10.05,9.69v11.63h-3.5V347.71c0-4.74-2.57-6.67-6.55-6.67s-6.52,2.13-6.52,7v11.34Z"/><path class="cls-5" d="M333.41,359.34V341.6H328.3v-3h5.11V333H337v5.55h5.63v3H337v17.74Z"/><path class="cls-5" d="M343.14,349c0-7.2,4.58-10.94,10.5-10.94s10.05,4,10.05,10.66a12.51,12.51,0,0,1-.08,1.25h-17c.32,4.58,3.21,7.16,7,7.16a6.14,6.14,0,0,0,5.55-3.18h3.5c-1.21,3.9-4.87,6-9.05,6C347.08,359.9,343.14,355.52,343.14,349ZM360,347.23c-.36-4-2.93-6.39-6.43-6.39a6.7,6.7,0,0,0-6.8,6.39Z"/></g></g></svg>