<svg xmlns="http://www.w3.org/2000/svg" xmlns:xlink="http://www.w3.org/1999/xlink" viewBox="0 0 1080 1080"><defs><style>.cls-1{fill:#a5a4a4;opacity:0.5;}.cls-2{fill:url(#Gradiente_sem_nome_17);}.cls-3{fill:url(#Gradiente_sem_nome_35);}.cls-4{fill:#006ed5;}.cls-5{fill:#ffc28e;}.cls-6{fill:url(#Gradiente_sem_nome_17-2);}.cls-7{fill:url(#Gradiente_sem_nome_35-2);}.cls-8{fill:url(#Gradiente_sem_nome_17-3);}.cls-9{fill:url(#Gradiente_sem_nome_17-4);}.cls-10{fill:#bc8c5c;}.cls-11{fill:url(#Gradiente_sem_nome_17-5);}.cls-12{fill:url(#Gradiente_sem_nome_17-6);}.cls-13{fill:url(#Gradiente_sem_nome_17-7);}.cls-14{fill:url(#Gradiente_sem_nome_17-8);}.cls-15{fill:url(#Gradiente_sem_nome_17-9);}</style><linearGradient id="Gradiente_sem_nome_17" x1="637.61" y1="760.04" x2="1152.44" y2="245.22" gradientTransform="translate(1112.47 -122.89) rotate(90)" gradientUnits="userSpaceOnUse"><stop offset="0" stop-color="#9c15ff"/><stop offset="0.34" stop-color="#9b15fd"/><stop offset="0.52" stop-color="#9917f5"/><stop offset="0.65" stop-color="#951ae8"/><stop offset="0.77" stop-color="#901dd5"/><stop offset="0.88" stop-color="#8822bc"/><stop offset="0.98" stop-color="#80289e"/><stop offset="1" stop-color="#7d2a95"/></linearGradient><linearGradient id="Gradiente_sem_nome_35" x1="675.04" y1="722.62" x2="1115.57" y2="282.1" gradientTransform="translate(1112.47 -122.89) rotate(90)" gradientUnits="userSpaceOnUse"><stop offset="0" stop-color="#9c15ff"/><stop offset="0.03" stop-color="#ab39ff"/><stop offset="0.08" stop-color="#bd62ff"/><stop offset="0.13" stop-color="#cd88ff"/><stop offset="0.18" stop-color="#daa8ff"/><stop offset="0.24" stop-color="#e6c4ff"/><stop offset="0.31" stop-color="#efdaff"/><stop offset="0.39" stop-color="#f6ebff"/><stop offset="0.48" stop-color="#fbf6ff"/><stop offset="0.62" stop-color="#fefdff"/><stop offset="1" stop-color="#fff"/></linearGradient><linearGradient id="Gradiente_sem_nome_17-2" x1="169.83" y1="924.55" x2="684.65" y2="409.72" xlink:href="#Gradiente_sem_nome_17"/><linearGradient id="Gradiente_sem_nome_35-2" x1="208.27" y1="886.11" x2="646.79" y2="447.6" xlink:href="#Gradiente_sem_nome_35"/><linearGradient id="Gradiente_sem_nome_17-3" x1="512.75" y1="722.95" x2="660.12" y2="722.95" gradientTransform="translate(-82.65 78.81) rotate(-7.39)" xlink:href="#Gradiente_sem_nome_17"/><linearGradient id="Gradiente_sem_nome_17-4" x1="353.23" y1="657.33" x2="387.23" y2="657.33" gradientTransform="matrix(1, 0, 0, 1, 0, 0)" xlink:href="#Gradiente_sem_nome_17"/><linearGradient id="Gradiente_sem_nome_17-5" x1="283.31" y1="436.05" x2="610.68" y2="436.05" gradientTransform="matrix(1, 0, 0, 1, 0, 0)" xlink:href="#Gradiente_sem_nome_17"/><linearGradient id="Gradiente_sem_nome_17-6" x1="407.74" y1="395.96" x2="488.07" y2="395.96" gradientTransform="matrix(1, 0, 0, 1, 0, 0)" xlink:href="#Gradiente_sem_nome_17"/><linearGradient id="Gradiente_sem_nome_17-7" x1="353.69" y1="257.36" x2="540.31" y2="257.36" gradientTransform="matrix(1, 0, 0, 1, 0, 0)" xlink:href="#Gradiente_sem_nome_17"/><linearGradient id="Gradiente_sem_nome_17-8" x1="425.58" y1="236.63" x2="572.96" y2="236.63" gradientTransform="translate(-82.65 78.81) rotate(-7.39)" xlink:href="#Gradiente_sem_nome_17"/><linearGradient id="Gradiente_sem_nome_17-9" x1="179.8" y1="187.63" x2="213.8" y2="187.63" gradientTransform="matrix(1, 0, 0, 1, 0, 0)" xlink:href="#Gradiente_sem_nome_17"/></defs><title>ilustras interface fundo cinza</title><g id="formas"><ellipse class="cls-1" cx="533" cy="543" rx="370.33" ry="354.88"/></g><g id="pessoas_pc_cor" data-name="pessoas pc cor"><path class="cls-2" d="M805.85,986.27H335.34a71.22,71.22,0,0,1-71.22-71.22l-.19-282.32a71.22,71.22,0,0,1,71.22-71.22H887.86a71.22,71.22,0,0,1,71.22,71.22L958.56,833l.33,70.34a82.55,82.55,0,0,1-82.55,82.94Z"/><path class="cls-3" d="M785.39,941.21h-421c-35.19,0-63.73-25.12-63.73-56.11l-.17-222.42c0-31,28.53-56.11,63.73-56.11H858.78c35.19,0,63.73,25.12,63.73,56.11L922,820.45l.3,55.42c.19,36-32.93,65.34-73.86,65.34Z"/><path class="cls-4" d="M433.17,942.54c0-48.44,42.76-71.37,165.48-70.81,131.46.6,161.89,19.22,161.89,70.81Z"/><path class="cls-4" d="M619,835.8s3,41.46,17.3,41.81c0,0-72.33-.73-72.76-.29s-5.84,0-5.84,0,10.1-7.36,14.65-41.89Z"/><path class="cls-5" d="M663.64,747.62c0,54.48-17.41,105.08-70.3,105.08-38.78,0-70.15-50.59-70.15-105.08s31.36-75.26,70.15-75.26S663.64,693.14,663.64,747.62Z"/><path class="cls-6" d="M641.34,518.49H170.83a71.22,71.22,0,0,1-71.22-71.22l-.19-282.32a71.22,71.22,0,0,1,71.22-71.22H723.36a71.22,71.22,0,0,1,71.22,71.22l-.53,200.26.33,70.34a82.55,82.55,0,0,1-82.55,82.94Z"/><path class="cls-7" d="M620.46,472h-420c-35.11,0-63.57-24.9-63.57-55.62l-.17-220.46c0-30.72,28.46-55.62,63.57-55.62H693.67c35.11,0,63.57,24.9,63.57,55.62l-.47,156.38.29,54.93c.19,35.72-32.85,64.77-73.68,64.77Z"/><path class="cls-5" d="M534,797.46c-17.1,3.89-23.41-8.06-23.41-18a18,18,0,0,1,18-18"/><path class="cls-5" d="M655.74,797.46c17.1,3.89,23.41-8.06,23.41-18a18,18,0,0,0-18-18"/><rect class="cls-4" x="804.7" y="640.33" width="83.62" height="32.03" rx="10.46" ry="10.46"/><path class="cls-8" d="M523.2,762.26c6.12.38,3.78-17.31,6.4-30.42s10.75-11.61,10.75-11.61c9.61,2.18,22.8-.07,34.5-10.41,28-24.76,38.78-4.65,49.56,7.16,8.56,9.38,24.46,7.26,28.65,11.45s8.12,8.52,7.21,21.66c-.34,4.85-.17,3.21-.66,7.19-.39,3.17,1.54,4.18,4,4.58,2.45-13.77,4.85-23.78,3.24-36,0,0-11.74-42.87-47.91-53.46-17.34-5.08-51.82-5.73-79.26,19.37,0,0-10.86,14.3-12.48,18.88C527.24,710.61,518.59,741.27,523.2,762.26Z"/><path class="cls-5" d="M814.29,886.27c-10.69.18-40.64-8.53-42.72-35-3-37.55,3-39.94,7.87-40s9.45,6.22,9.92,33l.15-65.69s-1.1-15.77,7.78-15.92,8.12,14.7,8.12,14.7l.72,41.58-1-57.8s-2.38-13.17,6.79-13.33,8.17,11.06,8.17,11.06L821.8,819l-1.49-52s-.67-7.17,6.51-7.29a7.28,7.28,0,0,1,7.74,6.57l.5,52.17-.38-40.12s-.33-5.26,6.61-5.38,6.58,6.83,6.58,6.83S869.49,885.32,814.29,886.27Z"/><path class="cls-5" d="M782.58,941.6c12-19.3,11.89-60.31,11.89-60.31l43.49-9s2.3,37.21-8.44,69.68Z"/><circle class="cls-9" cx="370.23" cy="657.33" r="17"/><circle class="cls-4" cx="774.23" cy="657.33" r="17"/><path class="cls-10" d="M470,364.72s3,41.46,17.3,41.81c0,0-72.33-.73-72.76-.29s-5.84,0-5.84,0,10.1-7.36,14.65-41.89Z"/><path class="cls-11" d="M283.31,471.46c0-48.44,42.76-71.37,165.48-70.81,131.46.6,161.89,19.22,161.89,70.81Z"/><path class="cls-12" d="M474.36,390.25c2.62,6,7.41,10.92,13.71,11,0,0-73.07,0-73.5.27s-6.83,0-6.83,0,5.79-2.32,10.26-11.29"/><path class="cls-13" d="M360.88,238.23c-11.3-16.55-9-35.95,4.95-47.72,28.31-23.89,45.27,19,60.81-5.77,19.42-30.9,27.64-34.63,58.72-13.11,12.58,8.71,7.59,23.84,10,37.05,3.19,17.78,48.75-2.45,44.75,33.91-4,36.2-28.5,26.54-24.31,58.52s-12.58,55.57-30.41,55.57-57-6.39-72.87-6.39c-23.07,0-52.95-31.36-49.28-46S380.26,266.61,360.88,238.23Z"/><path class="cls-10" d="M514.67,276.54c0,54.48-17.41,105.08-70.3,105.08-38.78,0-70.15-50.59-70.15-105.08s31.36-75.26,70.15-75.26S514.67,222.06,514.67,276.54Z"/><path class="cls-10" d="M385,326.38c-17.1,3.89-23.41-8.06-23.41-18a18,18,0,0,1,18-18"/><path class="cls-10" d="M506.76,326.38c17.1,3.89,23.41-8.06,23.41-18a18,18,0,0,0-18-18"/><rect class="cls-4" x="631.27" y="170.63" width="83.62" height="32.03" rx="10.46" ry="10.46"/><path class="cls-14" d="M374.22,291.18c6.12.38,3.78-17.31,6.4-30.42s10.75-11.61,10.75-11.61c9.61,2.18,22.8-.07,34.5-10.41,28-24.76,38.78-4.65,49.56,7.16,8.56,9.38,24.46,7.26,28.65,11.45s8.12,8.52,7.21,21.66c-.34,4.85-.17,3.21-.66,7.19-.39,3.17,1.54,4.18,4,4.58,2.45-13.77,4.85-23.78,3.24-36,0,0-11.74-42.87-47.91-53.46-17.34-5.08-51.82-5.73-79.26,19.37,0,0-10.86,14.3-12.48,18.88C378.26,239.53,369.62,270.19,374.22,291.18Z"/><circle class="cls-15" cx="196.8" cy="187.63" r="17"/><circle class="cls-4" cx="600.8" cy="187.63" r="17"/></g><g id="Traço"><path class="cls-4" d="M588.35,732.33c1.54,4.46-.26,9.14-1.3,13.53A77.28,77.28,0,0,0,585.49,759c-.32,5.37-.17,11-1.21,16.28-.66,3.34-1.91,6.54-2.43,9.92-.73,4.73.21,8.51,5,10.35,5.19,2,12.29,1.43,17.36-.7,1.75-.74,1-3.64-.8-2.89-4.41,1.86-12.54,3.19-16.76.23-4.9-3.44.06-12.69.78-17.38,1.33-8.66.47-17.59,2.1-26.22,1.06-5.61,3.7-11.39,1.74-17.09-.63-1.81-3.52-1-2.89.8Z"/><path class="cls-4" d="M615.76,744.16a64.2,64.2,0,0,1,4.66-20.57c.73-1.78-2.17-2.56-2.89-.8a66.8,66.8,0,0,0-4.77,21.37c-.12,1.93,2.88,1.92,3,0Z"/><path class="cls-4" d="M626.56,742.3c2.38-5.41,6.13-10,8.91-15.2.91-1.7-1.68-3.22-2.59-1.51-2.78,5.19-6.53,9.79-8.91,15.2-.77,1.75,1.81,3.28,2.59,1.51Z"/><path class="cls-4" d="M637.57,743.87A43.93,43.93,0,0,1,647,735c1.55-1.12.06-3.72-1.51-2.59a48.68,48.68,0,0,0-10.5,10c-1.17,1.54,1.43,3,2.59,1.51Z"/><path class="cls-4" d="M649.61,747.56a42.63,42.63,0,0,0,6.59-4.43c1.48-1.25-.65-3.36-2.12-2.12a38.63,38.63,0,0,1-6,4,1.5,1.5,0,0,0,1.51,2.59Z"/><path class="cls-4" d="M575.92,743.11c-.13-6.54-.34-15.14-4.63-20.46-1.21-1.5-3.32.63-2.12,2.12,3.69,4.57,3.65,12.75,3.75,18.34,0,1.93,3,1.93,3,0Z"/><path class="cls-4" d="M564.7,743.41c-2.51-5.24-3.94-10.94-7.34-15.73-1.11-1.56-3.71-.07-2.59,1.51,3.39,4.78,4.83,10.5,7.34,15.73.84,1.74,3.42.22,2.59-1.51Z"/><path class="cls-4" d="M550.84,744.68c-3.17-3.28-5.63-7.44-9.74-9.67-1.7-.92-3.21,1.67-1.51,2.59,3.84,2.08,6.16,6.13,9.13,9.2,1.34,1.39,3.46-.73,2.12-2.12Z"/><path class="cls-4" d="M542.45,750.44a28.1,28.1,0,0,0-8.53-5.63c-1.81-.68-2.59,2.21-.8,2.89a24.13,24.13,0,0,1,7.2,4.86c1.44,1.27,3.57-.84,2.12-2.12Z"/><path class="cls-4" d="M623.82,759c.78,3.7,3.14,8.69,7.65,8.54,4.71-.16,6.09-5.78,6.3-9.54.11-1.93-2.89-1.92-3,0s-.68,6.68-3.61,6.54-4-4.18-4.45-6.34c-.4-1.89-3.29-1.09-2.89.8Z"/><path class="cls-4" d="M550.37,762a7.35,7.35,0,0,0,7.48,8c4.77,0,7.62-4,7.06-8.48-.23-1.89-3.24-1.91-3,0,.35,2.88-.82,5.52-4.06,5.48a4.36,4.36,0,0,1-4.48-5c.14-1.93-2.86-1.92-3,0Z"/><path class="cls-4" d="M576.8,819.94c17,12.65,47.85,4.06,50.49-18.59.22-1.91-2.78-1.9-3,0-2.4,20.59-31,27.11-46,16-1.55-1.15-3,1.45-1.51,2.59Z"/><path class="cls-4" d="M617.41,763.16c9.59-8.63,20.77-7.15,31.21-.83a1.5,1.5,0,0,0,1.51-2.59c-11.68-7.06-24.25-8.24-34.85,1.3-1.44,1.29.69,3.41,2.12,2.12Z"/><path class="cls-4" d="M575.17,761.25c-12.63-6.47-24.61-6.53-34.32,4.8-1.25,1.46.86,3.59,2.12,2.12,4-4.64,8.77-8.36,15.1-8.69,5.51-.29,10.78,1.9,15.59,4.36,1.72.88,3.23-1.71,1.51-2.59Z"/><path class="cls-4" d="M836.54,816.16q-.56-18.86.62-37.7c.12-1.93-2.88-1.92-3,0q-1.19,18.84-.62,37.7c.06,1.93,3.06,1.93,3,0Z"/><path class="cls-4" d="M819.94,817.58q.61-25.33,1.87-50.64c.1-1.93-2.9-1.92-3,0q-1.26,25.31-1.87,50.64c0,1.93,3,1.93,3,0Z"/><path class="cls-4" d="M806.75,817.69q-.57-22.45-.54-44.9a1.5,1.5,0,0,0-3,0q0,22.46.54,44.9c0,1.93,3,1.93,3,0Z"/><path class="cls-4" d="M788.19,831.34c1.84,8.06-.64,17.29-2.46,25.18-.43,1.88,2.46,2.68,2.89.8,1.94-8.42,4.42-18.19,2.46-26.78-.43-1.88-3.32-1.09-2.89.8Z"/><path class="cls-4" d="M662.54,788.2a30.67,30.67,0,0,1,3-8c.5-1,1.13-2.45,2.1-3s2.4-.45,1.37.9c-.61.8-2.43.94-3.32,1-1.9.18-1.92,3.18,0,3,2.53-.24,5.53-.82,6.46-3.56.71-2.09-.28-4.65-2.63-5-2.7-.38-4.81,2-6,4.13a31.94,31.94,0,0,0-3.88,9.74c-.37,1.89,2.52,2.69,2.89.8Z"/><path class="cls-4" d="M529.23,788.47a34.39,34.39,0,0,0-3.48-9.74c-1-2-3-4.53-5.57-4.13-2.29.36-3.11,3-2.46,5,.85,2.62,3.48,3.3,5.93,3.56,1.92.21,1.9-2.8,0-3a4,4,0,0,1-2.33-.75c-.66-.54-1.37-1.28-.17-1.28s2,2.14,2.5,3.13a33.11,33.11,0,0,1,2.7,8c.33,1.9,3.22,1.09,2.89-.8Z"/><path class="cls-4" d="M466.79,273.08a64.2,64.2,0,0,1,4.66-20.57c.73-1.78-2.17-2.56-2.89-.8a66.8,66.8,0,0,0-4.77,21.37c-.12,1.93,2.88,1.92,3,0Z"/><path class="cls-4" d="M477.59,271.22c2.38-5.41,6.13-10,8.91-15.2.91-1.7-1.68-3.22-2.59-1.51-2.78,5.19-6.53,9.79-8.91,15.2-.77,1.75,1.81,3.28,2.59,1.51Z"/><path class="cls-4" d="M488.6,272.79a43.93,43.93,0,0,1,9.42-8.9c1.55-1.12.06-3.72-1.51-2.59a48.68,48.68,0,0,0-10.5,10c-1.17,1.54,1.43,3,2.59,1.51Z"/><path class="cls-4" d="M500.64,276.48a42.63,42.63,0,0,0,6.59-4.43c1.48-1.25-.65-3.36-2.12-2.12a38.63,38.63,0,0,1-6,4,1.5,1.5,0,0,0,1.51,2.59Z"/><path class="cls-4" d="M426.95,272c-.13-6.54-.34-15.14-4.63-20.46-1.21-1.5-3.32.63-2.12,2.12,3.69,4.57,3.65,12.75,3.75,18.34,0,1.93,3,1.93,3,0Z"/><path class="cls-4" d="M415.73,272.33c-2.51-5.24-3.94-10.94-7.34-15.73-1.11-1.56-3.71-.07-2.59,1.51,3.39,4.78,4.83,10.5,7.34,15.73.84,1.74,3.42.22,2.59-1.51Z"/><path class="cls-4" d="M401.87,273.6c-3.17-3.28-5.63-7.44-9.74-9.67-1.7-.92-3.21,1.67-1.51,2.59,3.84,2.08,6.16,6.13,9.13,9.2,1.34,1.39,3.46-.73,2.12-2.12Z"/><path class="cls-4" d="M393.48,279.36a28.1,28.1,0,0,0-8.53-5.63c-1.81-.68-2.59,2.21-.8,2.89a24.13,24.13,0,0,1,7.2,4.86c1.44,1.27,3.57-.84,2.12-2.12Z"/><path class="cls-4" d="M474.85,287.87c.78,3.7,3.14,8.69,7.65,8.54,4.71-.16,6.09-5.78,6.3-9.54.11-1.93-2.89-1.92-3,0s-.68,6.68-3.61,6.54-4-4.18-4.45-6.34c-.4-1.89-3.29-1.09-2.89.8Z"/><path class="cls-4" d="M401.4,290.91a7.35,7.35,0,0,0,7.48,8c4.77,0,7.62-4,7.06-8.48-.23-1.89-3.24-1.91-3,0,.35,2.88-.82,5.52-4.06,5.48a4.36,4.36,0,0,1-4.48-5c.14-1.93-2.86-1.92-3,0Z"/><path class="cls-4" d="M468.44,292.08c9.59-8.63,20.77-7.15,31.21-.83a1.5,1.5,0,0,0,1.51-2.59c-11.68-7.06-24.25-8.24-34.85,1.3-1.44,1.29.69,3.41,2.12,2.12Z"/><path class="cls-4" d="M426.2,290.17c-12.63-6.47-24.61-6.53-34.32,4.8-1.25,1.46.86,3.59,2.12,2.12,4-4.64,8.77-8.36,15.1-8.69,5.51-.29,10.78,1.9,15.59,4.36,1.72.88,3.23-1.71,1.51-2.59Z"/><path class="cls-4" d="M513.57,317.12a30.67,30.67,0,0,1,3-8c.5-1,1.13-2.45,2.1-3s2.4-.45,1.37.9c-.61.8-2.43.94-3.32,1-1.9.18-1.92,3.18,0,3,2.53-.24,5.53-.82,6.46-3.56.71-2.09-.28-4.65-2.63-5-2.7-.38-4.81,2-6,4.13a31.94,31.94,0,0,0-3.88,9.74c-.37,1.89,2.52,2.69,2.89.8Z"/><path class="cls-4" d="M380.25,317.39a34.39,34.39,0,0,0-3.48-9.74c-1-2-3-4.53-5.57-4.13-2.29.36-3.11,3-2.46,5,.85,2.62,3.48,3.3,5.93,3.56,1.92.21,1.9-2.8,0-3a4,4,0,0,1-2.33-.75c-.66-.54-1.37-1.28-.17-1.28s2,2.14,2.5,3.13a33.11,33.11,0,0,1,2.7,8c.33,1.9,3.22,1.09,2.89-.8Z"/><path class="cls-4" d="M447.65,283.78c3.55,9.25-3.91,18.16-3.22,27.58.14,1.91,3.14,1.93,3,0-.72-9.78,6.86-18.61,3.11-28.38-.68-1.78-3.59-1-2.89.8Z"/><path class="cls-4" d="M430.67,322.59c2.28,5.54,7.11,9.6,13.33,9.59a14.47,14.47,0,0,0,8.38-2.73,30.18,30.18,0,0,0,4.2-4.26,15,15,0,0,1,2.87-2.71q3.65.56,2.76,3.2c-.23,1.91,2.77,1.9,3,0,.6-5-2.3-8.68-7.27-5.79-3.49,2-5.06,6.13-8.7,8-6.17,3.2-13.14.06-15.67-6.11-.72-1.76-3.63-1-2.89.8Z"/><path class="cls-4" d="M413.29,344.87c9.61,6,20.25,10.66,31.74,11,11.93.33,21.27-4.9,30.57-11.8,1.53-1.14,0-3.74-1.51-2.59-8.87,6.58-17.64,11.69-29.06,11.39-10.95-.29-21.07-4.87-30.22-10.57-1.64-1-3.15,1.57-1.51,2.59Z"/><path class="cls-4" d="M428.74,349.33c3-3,6-5.33,10.37-3.41,2,.88,3.56,2.28,5.87,2.44a9.56,9.56,0,0,0,4.71-1.09c3.63-1.61,11.26-5.1,12.15,2.34.22,1.89,3.23,1.92,3,0a8.3,8.3,0,0,0-5.55-7c-3.85-1.59-6.37-.14-9.88,1.43-3.86,1.73-5.47.89-8.77-.73a10.32,10.32,0,0,0-4.25-1.2c-4.14-.17-7,2.36-9.76,5.08-1.38,1.35.74,3.47,2.12,2.12Z"/><path class="cls-4" d="M413,344.63c8.85,9.57,19.59,20.42,33.46,20.86,13.19.42,22.57-12.47,29.69-22,1.16-1.55-1.45-3-2.59-1.51-7,9.33-16.13,21.85-29.13,20.33-12-1.4-21.47-11.33-29.31-19.81-1.31-1.42-3.43.7-2.12,2.12Z"/></g></svg>