<svg xmlns="http://www.w3.org/2000/svg" xmlns:xlink="http://www.w3.org/1999/xlink" viewBox="0 0 1080 1080"><defs><style>.cls-1{opacity:0.5;fill:url(#Gradiente_sem_nome_26);}.cls-2{fill:url(#Gradiente_sem_nome_17);}.cls-3{fill:url(#Gradiente_sem_nome_35);}.cls-4{fill:url(#Gradiente_sem_nome_17-2);}.cls-5{fill:#006ed5;}.cls-6{fill:url(#Gradiente_sem_nome_17-3);}.cls-7{fill:url(#Gradiente_sem_nome_38);}.cls-8,.cls-9{fill:none;stroke-miterlimit:10;stroke-width:5.67px;}.cls-8{stroke:#fff;}.cls-9{stroke:#704a82;}.cls-10{fill:#fff;}.cls-11{fill:#ffda8f;}</style><linearGradient id="Gradiente_sem_nome_26" x1="162.67" y1="543" x2="903.33" y2="543" gradientUnits="userSpaceOnUse"><stop offset="0.11" stop-color="#006ed5"/><stop offset="0.22" stop-color="#2b6cde"/><stop offset="0.36" stop-color="#5969e8"/><stop offset="0.49" stop-color="#8067f0"/><stop offset="0.62" stop-color="#9e66f7"/><stop offset="0.75" stop-color="#b365fb"/><stop offset="0.88" stop-color="#c064fe"/><stop offset="1" stop-color="#c464ff"/></linearGradient><linearGradient id="Gradiente_sem_nome_17" x1="619.4" y1="480.1" x2="871.98" y2="227.52" gradientTransform="translate(1099.5 -391.88) rotate(90)" gradientUnits="userSpaceOnUse"><stop offset="0" stop-color="#9c15ff"/><stop offset="0.34" stop-color="#9b15fd"/><stop offset="0.52" stop-color="#9917f5"/><stop offset="0.65" stop-color="#951ae8"/><stop offset="0.77" stop-color="#901dd5"/><stop offset="0.88" stop-color="#8822bc"/><stop offset="0.98" stop-color="#80289e"/><stop offset="1" stop-color="#7d2a95"/></linearGradient><linearGradient id="Gradiente_sem_nome_35" x1="650.87" y1="258.52" x2="841.46" y2="449.11" gradientTransform="translate(1099.98 -392.35) rotate(90)" gradientUnits="userSpaceOnUse"><stop offset="0" stop-color="#9c15ff"/><stop offset="0.03" stop-color="#ab39ff"/><stop offset="0.08" stop-color="#bd62ff"/><stop offset="0.13" stop-color="#cd88ff"/><stop offset="0.18" stop-color="#daa8ff"/><stop offset="0.24" stop-color="#e6c4ff"/><stop offset="0.31" stop-color="#efdaff"/><stop offset="0.39" stop-color="#f6ebff"/><stop offset="0.48" stop-color="#fbf6ff"/><stop offset="0.62" stop-color="#fefdff"/><stop offset="1" stop-color="#fff"/></linearGradient><linearGradient id="Gradiente_sem_nome_17-2" x1="314.4" y1="833.13" x2="504.77" y2="833.13" gradientTransform="matrix(1, 0, 0, 1, 0, 0)" xlink:href="#Gradiente_sem_nome_17"/><linearGradient id="Gradiente_sem_nome_17-3" x1="142.18" y1="570.12" x2="494.39" y2="217.91" gradientTransform="matrix(1, 0, 0, 1, 0, 0)" xlink:href="#Gradiente_sem_nome_17"/><linearGradient id="Gradiente_sem_nome_38" x1="424.08" y1="225.22" x2="462.89" y2="186.41" gradientUnits="userSpaceOnUse"><stop offset="0" stop-color="#9c15ff"/><stop offset="0.15" stop-color="#b045ff"/><stop offset="0.38" stop-color="#cc87ff"/><stop offset="0.59" stop-color="#e2baff"/><stop offset="0.77" stop-color="#f2e0ff"/><stop offset="0.91" stop-color="#fbf7ff"/><stop offset="1" stop-color="#fff"/></linearGradient></defs><title>ilustras interface fundo gradiente</title><g id="formas"><ellipse class="cls-1" cx="533" cy="543" rx="370.33" ry="354.88"/></g><g id="projetos_cor" data-name="projetos cor"><rect class="cls-2" x="630.38" y="197.81" width="230.61" height="312" rx="31.97" ry="31.97" transform="translate(391.88 1099.5) rotate(-90)"/><rect class="cls-3" x="662" y="233.34" width="168.34" height="240.96" rx="24" ry="24" transform="translate(392.35 1099.98) rotate(-90)"/><rect class="cls-4" x="314.4" y="664.69" width="190.37" height="336.87" rx="26.39" ry="26.39"/><rect class="cls-5" x="169.75" y="789.79" width="83.62" height="83.62" rx="12.83" ry="12.83" transform="translate(-620.05 1043.16) rotate(-90)"/><rect class="cls-5" x="818.07" y="511.45" width="83.62" height="83.62" rx="12.83" ry="12.83" transform="translate(306.62 1413.14) rotate(-90)"/><rect class="cls-5" x="169.75" y="667.39" width="83.62" height="83.62" rx="12.83" ry="12.83" transform="translate(-497.64 920.76) rotate(-90)"/><rect class="cls-5" x="818.07" y="100.24" width="83.62" height="83.62" rx="12.83" ry="12.83" transform="translate(1719.76 284.1) rotate(180)"/><rect class="cls-5" x="697.91" y="100.24" width="83.62" height="83.62" rx="12.83" ry="12.83" transform="translate(1479.45 284.1) rotate(180)"/><rect class="cls-5" x="555.36" y="901.38" width="83.62" height="83.62" rx="12.83" ry="12.83" transform="translate(1194.35 1886.38) rotate(180)"/><rect class="cls-5" x="583.25" y="100.24" width="83.62" height="83.62" rx="12.83" ry="12.83" transform="translate(1250.12 284.1) rotate(180)"/><path class="cls-6" d="M409.69,133.61l-201-.5a49.48,49.48,0,0,0-49.48,49.48v384a49.48,49.48,0,0,0,49.48,49.48h258a49.48,49.48,0,0,0,49.48-49.48V239.71"/><path class="cls-7" d="M409.59,133.11v57.12a49.48,49.48,0,0,0,49.48,49.48h57.12Z"/><line class="cls-8" x1="212.39" y1="268.71" x2="462.99" y2="268.71"/><line class="cls-8" x1="212.39" y1="304.71" x2="462.99" y2="304.71"/><line class="cls-8" x1="212.39" y1="340.71" x2="462.99" y2="340.71"/><line class="cls-8" x1="212.39" y1="376.71" x2="462.99" y2="376.71"/><line class="cls-8" x1="212.39" y1="412.7" x2="462.99" y2="412.7"/><line class="cls-8" x1="212.39" y1="448.7" x2="462.99" y2="448.7"/><line class="cls-8" x1="212.39" y1="484.7" x2="462.99" y2="484.7"/><line class="cls-8" x1="212.39" y1="520.7" x2="462.99" y2="520.7"/><line class="cls-8" x1="340.17" y1="764.05" x2="479.01" y2="764.05"/><line class="cls-8" x1="340.17" y1="791.7" x2="479.01" y2="791.7"/><line class="cls-8" x1="340.17" y1="819.34" x2="479.01" y2="819.34"/><line class="cls-8" x1="340.17" y1="846.99" x2="479.01" y2="846.99"/><line class="cls-8" x1="340.17" y1="874.63" x2="479.01" y2="874.63"/><line class="cls-8" x1="340.17" y1="902.28" x2="479.01" y2="902.28"/><line class="cls-8" x1="340.17" y1="929.92" x2="479.01" y2="929.92"/><line class="cls-9" x1="651.09" y1="331.49" x2="834.69" y2="331.49"/><line class="cls-9" x1="651.09" y1="357.86" x2="834.69" y2="357.86"/><line class="cls-9" x1="651.09" y1="384.24" x2="834.69" y2="384.24"/><line class="cls-9" x1="651.09" y1="410.61" x2="834.69" y2="410.61"/><path class="cls-10" d="M354.69,664.69H463.77s1.43,18.79-7.84,18.79H363.24C356.47,683.49,354.69,673.35,354.69,664.69Z"/><path class="cls-11" d="M926.44,824.87l-17.26-16.65a70.25,70.25,0,0,1-21.33-50.09c-.44-56.64-15.58-113.71-56.88-131.75-104.11-45.48-93.93-17.1-102.56-2.45h0a1.91,1.91,0,0,1-3,.41l-96-92.3-.08-.08c-1.27-1.39-36.42-39.59-57.42-18.56-21.2,21.23,15.43,53.48,16.78,54.66l.08.08,43,42.57a1.85,1.85,0,0,1-1.6,3.14c-6.22-1-12.76.59-18.95,6.78-21.37,21.39,5.88,44.62,7.69,46.12l.18.17,7.85,8.54a1.85,1.85,0,0,1-1.82,3.05c-5.72-1.36-12.75-.43-20,6.84-16.74,16.75-3.15,33.42-2.26,34.47l.09.1,20.46,20.73a1.85,1.85,0,0,1-1.49,3.15c-4.92-.52-11.33,1.07-18.61,8.37-15.65,15.67-1,30.32,1,32.11a1.67,1.67,0,0,1,.34.44C607.74,790.53,663.88,893.29,757,913c3.93.83,7.87,1.53,11.83,2.06a62,62,0,0,1,34.71,17h0c50.25,48.5,134.1,12.89,134.1-56.95V851.35A36.8,36.8,0,0,0,926.44,824.87ZM823.9,719,803,698.94C809.65,705.06,816.61,711.72,823.9,719Z"/></g><g id="Traço"><path class="cls-5" d="M652.2,763.76a259.79,259.79,0,0,0-19.71-19.68c-4.06-3.64-10.1,2.35-6,6a259.79,259.79,0,0,1,19.71,19.68c3.67,4.08,9.67-2,6-6Z"/><path class="cls-5" d="M687.67,729.72q-24.53-24.45-49.84-48.1c-4-3.73-10,2.27-6,6q25.3,23.65,49.84,48.1c3.88,3.87,9.9-2.14,6-6Z"/><path class="cls-5" d="M722.31,694.24q-38.47-40.1-78-79.15c-3.9-3.85-9.92,2.16-6,6q39.54,39,78,79.15c3.8,4,9.8-2.06,6-6Z"/><path class="cls-5" d="M726.14,629.12c4.11,6.82,10.09,12.6,15.82,18a249.07,249.07,0,0,0,21.6,18.37c7.59,5.73,15.94,10.58,25.59,11.44,11.11,1,21.77-3.9,31.72-8.17,5-2.15.69-9.48-4.29-7.34-8.73,3.75-18.54,8.31-28.31,6.91-8.41-1.21-15.66-6.45-22.2-11.56s-12.66-10.46-18.58-16.13c-5-4.81-10.39-9.85-14-15.86-2.82-4.68-10.18-.41-7.34,4.29Z"/><path class="cls-5" d="M587,537.52c-7.57-7.83,1.86-16.16,10.52-12.44a19.72,19.72,0,0,1,7.64,6.47c2.07,2.76,5.44,7.44,5.13,11-.38,4.4-5.62,7-9.52,6.17-5.65-1.21-10.24-7.08-13.77-11.25s-9.53,1.86-6,6c7.38,8.72,18.68,18.8,30.47,11.26,9.65-6.17,7.94-16.36,2.8-24.87-4.37-7.24-11.23-13.59-20-14.27A18,18,0,0,0,578,523.21c-4.51,6.79-2.36,14.77,3,20.32,3.81,3.94,9.82-2.08,6-6Z"/></g></svg>