<svg xmlns="http://www.w3.org/2000/svg" xmlns:xlink="http://www.w3.org/1999/xlink" viewBox="0 0 1080 1080"><defs><style>.cls-1{opacity:0.5;fill:url(#Gradiente_sem_nome_26);}.cls-2{fill:#006ed5;}.cls-3,.cls-4,.cls-5,.cls-6,.cls-7,.cls-8,.cls-9{stroke:#006ed5;stroke-miterlimit:10;}.cls-3{fill:url(#Gradiente_sem_nome_22);}.cls-4{fill:url(#Gradiente_sem_nome_22-2);}.cls-5{fill:url(#Gradiente_sem_nome_22-3);}.cls-6{fill:url(#Gradiente_sem_nome_22-4);}.cls-7{fill:url(#Gradiente_sem_nome_22-5);}.cls-8{fill:url(#Gradiente_sem_nome_22-6);}.cls-9{fill:url(#Gradiente_sem_nome_22-7);}</style><linearGradient id="Gradiente_sem_nome_26" x1="120.62" y1="498.31" x2="861.29" y2="498.31" gradientTransform="translate(48.52 4.13) scale(0.96 1)" gradientUnits="userSpaceOnUse"><stop offset="0.11" stop-color="#006ed5"/><stop offset="0.22" stop-color="#2b6cde"/><stop offset="0.36" stop-color="#5969e8"/><stop offset="0.49" stop-color="#8067f0"/><stop offset="0.62" stop-color="#9e66f7"/><stop offset="0.75" stop-color="#b365fb"/><stop offset="0.88" stop-color="#c064fe"/><stop offset="1" stop-color="#c464ff"/></linearGradient><linearGradient id="Gradiente_sem_nome_22" x1="68.98" y1="176.92" x2="310.53" y2="418.46" gradientUnits="userSpaceOnUse"><stop offset="0" stop-color="#9c15ff"/><stop offset="0.07" stop-color="#af41ff"/><stop offset="0.15" stop-color="#c16dff"/><stop offset="0.23" stop-color="#d295ff"/><stop offset="0.32" stop-color="#e0b6ff"/><stop offset="0.42" stop-color="#ebd0ff"/><stop offset="0.52" stop-color="#f4e5ff"/><stop offset="0.64" stop-color="#faf4ff"/><stop offset="0.78" stop-color="#fefcff"/><stop offset="1" stop-color="#fff"/></linearGradient><linearGradient id="Gradiente_sem_nome_22-2" x1="221.94" y1="396.8" x2="463.48" y2="638.34" xlink:href="#Gradiente_sem_nome_22"/><linearGradient id="Gradiente_sem_nome_22-3" x1="384.12" y1="375.58" x2="625.67" y2="617.12" xlink:href="#Gradiente_sem_nome_22"/><linearGradient id="Gradiente_sem_nome_22-4" x1="538.33" y1="708.61" x2="779.87" y2="950.16" xlink:href="#Gradiente_sem_nome_22"/><linearGradient id="Gradiente_sem_nome_22-5" x1="594.81" y1="221.79" x2="804.26" y2="431.23" xlink:href="#Gradiente_sem_nome_22"/><linearGradient id="Gradiente_sem_nome_22-6" x1="767.95" y1="474.02" x2="977.4" y2="683.47" xlink:href="#Gradiente_sem_nome_22"/><linearGradient id="Gradiente_sem_nome_22-7" x1="778.51" y1="205.56" x2="987.96" y2="415" xlink:href="#Gradiente_sem_nome_22"/></defs><title>ilustras interface fundo gradiente</title><g id="formas"><circle class="cls-1" cx="519" cy="502.44" r="354.88" transform="translate(-195.58 608.2) rotate(-52.49)"/></g><g id="celzinhos"><path class="cls-2" d="M604.13,794.28c-5.32-3.64-9.37-9.72-12.39-15.25-7.36-13.52-9-28.62-8.95-43.77q.05-34.7.35-69.4c.31-45-.48-90.18,1.61-135.11.65-14-.43-29.26-9.4-40.75-3.4-4.36-8.41-8.74-14-10.06-1.88-.45-2.68,2.45-.8,2.89,4.81,1.15,9.17,5,12.17,8.7,8.81,11,9.6,25.9,9,39.34-.77,16.9-.68,33.86-.87,50.77q-.86,76.64-1.08,153.29c0,15.64,1.64,31.16,9.13,45.16,3.3,6.17,7.81,12.73,13.7,16.76,1.6,1.09,3.1-1.5,1.51-2.59Z"/><path class="cls-2" d="M289,561.16c-7.15-4.39-12.61-12.31-16.29-19.62-9.46-18.8-7.67-40.18-7.38-60.58q.45-31.42,1.62-62.83c.28-7.27.57-14.55,1-21.81s1-14.3-.63-21.51c-3-13.1-11.26-26-21.64-34.64-1.48-1.22-3.61.89-2.12,2.12a63.83,63.83,0,0,1,20.55,32c2,7.66,1.25,15.07.79,22.81s-.77,15.7-1.06,23.56q-1.16,31.63-1.56,63.29c-.25,19.37-1.46,39.08,6.89,57.12,3.93,8.51,10.13,17.63,18.31,22.66,1.65,1,3.16-1.58,1.51-2.59Z"/><path class="cls-2" d="M244.56,310.57c4.71,7.85,12.51,15.19,21.43,17.74,7.18,2.06,12,.67,13.23-6.91s.11-15.28-.13-22.78c-.14-4.32-1.49-15.79,3.87-17.88,3.41-1.33,8,2,10.59,3.73,5.41,3.65,10.28,8.2,15.13,12.55,11.09,9.94,21.76,20.36,32.34,30.85,21.39,21.2,42.19,43.11,64.71,63.14,8.5,7.56,17.4,15.44,27.51,20.81,5,2.64,12.19,5.7,17,1.16,1.41-1.33-.72-3.45-2.12-2.12-4.23,4-11.89-.69-15.77-3-9-5.36-17.09-12.38-24.9-19.35-21.68-19.33-41.78-40.41-62.38-60.87-10.08-10-20.24-20-30.73-29.56-7.58-6.92-16.26-16.69-26.32-19.92-14.78-4.75-12,18.88-11.64,26.84a122.75,122.75,0,0,1,.23,12.68c-.13,2.37-.19,6.59-2.43,8.13-1.91,1.31-5.42.18-7.37-.4a30,30,0,0,1-11.37-6.6,42.89,42.89,0,0,1-8.27-9.76,1.5,1.5,0,0,0-2.59,1.51Z"/><path class="cls-2" d="M824.42,616.22c-8.78-3.56-18.29-11.27-24.62-19.11a58.55,58.55,0,0,1-12.23-27.49c-1.93-12.07-.73-25-.63-37.17.21-24,.6-48.06,1-72.1.24-16.65,1.95-33.35-7.42-48.1a72.72,72.72,0,0,0-30.73-26.35c-1.75-.78-3.27,1.8-1.51,2.59a70.81,70.81,0,0,1,28.42,23.42c10.7,15.44,8.46,33.6,8.2,51.37-.36,24.3-.75,48.6-.94,72.91-.09,11.49-1.09,23.5.87,34.87a60.88,60.88,0,0,0,11.4,26.24c6.92,9.18,16.68,17.43,27.44,21.8,1.79.73,2.57-2.17.8-2.89Z"/><path class="cls-2" d="M748,354.84a76.2,76.2,0,0,0,22.35,15.32c5.07,2.16,11,3.66,16.4,1.86,6.22-2.06,9.64-8,11.4-14,3.8-12.85,2.23-27.21,2.49-40.43.31-15.67.89-31.33,1.53-47,.48-11.75,1.07-23.5,1.39-35.26.24-8.62-1-20.48,6.63-26.48,9.6-7.55,25.8,1.37,34.18,7.27,1.58,1.11,3.08-1.49,1.51-2.59-7.82-5.52-18.28-10.77-28.06-10.32-18.54.84-16.94,23-17.4,36.37-1,28.54-2.53,57.06-2.92,85.62-.18,13.25,3,49-20.07,44.11-10.22-2.17-19.91-9.49-27.33-16.63-1.39-1.34-3.51.78-2.12,2.12Z"/><path class="cls-2" d="M554.28,438.8a76.2,76.2,0,0,0,22.35,15.32c5.07,2.16,11,3.66,16.4,1.86,6.22-2.06,9.64-8,11.4-14,3.8-12.85,2.23-27.21,2.49-40.43.31-15.67.89-31.33,1.53-47,.48-11.75,1.07-23.5,1.39-35.26.24-8.62-1-20.48,6.63-26.48,9.6-7.55,25.8,1.37,34.18,7.27,1.58,1.11,3.08-1.49,1.51-2.59-7.82-5.52-18.28-10.77-28.06-10.32-18.54.84-16.94,23-17.4,36.37-1,28.54-2.53,57.06-2.92,85.62-.18,13.25,3,49-20.07,44.11-10.22-2.17-19.91-9.49-27.33-16.63-1.39-1.34-3.51.78-2.12,2.12Z"/><path class="cls-3" d="M136.05,390.76l98.19,94.38a6.82,6.82,0,0,0,11.61-4.85V209.84a6.82,6.82,0,0,0-2-4.83l-98.19-95.12A6.82,6.82,0,0,0,134,114.72V385.91A6.82,6.82,0,0,0,136.05,390.76Z"/><path class="cls-4" d="M289,610.63,387.19,705a6.82,6.82,0,0,0,11.61-4.85V429.72a6.82,6.82,0,0,0-2-4.83l-98.19-95.12A6.82,6.82,0,0,0,287,334.6V605.79A6.82,6.82,0,0,0,289,610.63Z"/><path class="cls-5" d="M451.19,589.42l98.19,94.38A6.82,6.82,0,0,0,561,679V408.5a6.82,6.82,0,0,0-2-4.83l-98.19-95.12a6.82,6.82,0,0,0-11.63,4.83V584.57A6.82,6.82,0,0,0,451.19,589.42Z"/><path class="cls-2" d="M463.83,378.49l76.43,74a4.32,4.32,0,0,0,7.35-3.07V428.82a4.32,4.32,0,0,0-1.27-3.06l-76.43-74.42a4.32,4.32,0,0,0-7.36,3.06v21A4.32,4.32,0,0,0,463.83,378.49Z"/><path class="cls-2" d="M148.69,316.14l76.43,74a4.32,4.32,0,0,0,7.35-3.07V366.47a4.32,4.32,0,0,0-1.27-3.06L154.77,289a4.32,4.32,0,0,0-7.36,3.06v21A4.32,4.32,0,0,0,148.69,316.14Z"/><path class="cls-2" d="M463.83,421l76.43,74a4.32,4.32,0,0,0,7.35-3.07V471.28a4.32,4.32,0,0,0-1.27-3.06L469.91,393.8a4.32,4.32,0,0,0-7.36,3.06v21A4.32,4.32,0,0,0,463.83,421Z"/><path class="cls-2" d="M148.69,231.34l76.43,74a4.32,4.32,0,0,0,7.35-3.07V281.66a4.32,4.32,0,0,0-1.27-3.06l-76.43-74.42a4.32,4.32,0,0,0-7.36,3.06v21A4.32,4.32,0,0,0,148.69,231.34Z"/><path class="cls-2" d="M148.69,274.11l76.43,74a4.32,4.32,0,0,0,7.35-3.07V324.43a4.32,4.32,0,0,0-1.27-3.06L154.77,247a4.32,4.32,0,0,0-7.36,3.06v21A4.32,4.32,0,0,0,148.69,274.11Z"/><path class="cls-6" d="M605.39,922.45l98.19,94.38A6.82,6.82,0,0,0,715.2,1012V741.53a6.82,6.82,0,0,0-2-4.83L615,641.58a6.82,6.82,0,0,0-11.63,4.83V917.6A6.82,6.82,0,0,0,605.39,922.45Z"/><path class="cls-2" d="M618,705.49l76.43,74a4.32,4.32,0,0,0,7.35-3.07V755.81a4.32,4.32,0,0,0-1.27-3.06l-76.43-74.42a4.32,4.32,0,0,0-7.36,3.06v21A4.32,4.32,0,0,0,618,705.49Z"/><path class="cls-2" d="M618,867.47l76.43,74a4.32,4.32,0,0,0,7.35-3.07V831.63a4.32,4.32,0,0,0-1.27-3.06l-76.43-74.42a4.32,4.32,0,0,0-7.36,3.06V864.4A4.32,4.32,0,0,0,618,867.47Z"/><path class="cls-2" d="M301.65,596l76.43,74a4.32,4.32,0,0,0,7.35-3.07V560.14a4.32,4.32,0,0,0-1.27-3.06l-76.43-74.42a4.32,4.32,0,0,0-7.36,3.06V592.91A4.32,4.32,0,0,0,301.65,596Z"/><path class="cls-7" d="M653,407.21,738.11,489a5.91,5.91,0,0,0,10.07-4.2V250.33a5.91,5.91,0,0,0-1.74-4.19l-85.14-82.48a5.91,5.91,0,0,0-10.08,4.19V403A5.91,5.91,0,0,0,653,407.21Z"/><path class="cls-8" d="M826.11,659.44l85.14,81.84a5.91,5.91,0,0,0,10.07-4.2V502.57a5.91,5.91,0,0,0-1.74-4.19L834.43,415.9a5.91,5.91,0,0,0-10.08,4.19V655.24A5.91,5.91,0,0,0,826.11,659.44Z"/><path class="cls-2" d="M663.93,342.51l66.27,64.12a3.74,3.74,0,0,0,6.37-2.66V386.15a3.74,3.74,0,0,0-1.1-2.65L669.2,319a3.74,3.74,0,0,0-6.38,2.65v18.23A3.74,3.74,0,0,0,663.93,342.51Z"/><path class="cls-2" d="M663.93,269,730.2,333.1a3.74,3.74,0,0,0,6.37-2.66V312.61a3.74,3.74,0,0,0-1.1-2.65L669.2,245.43a3.74,3.74,0,0,0-6.38,2.65v18.23A3.74,3.74,0,0,0,663.93,269Z"/><path class="cls-2" d="M837.07,498l66.27,64.12a3.74,3.74,0,0,0,6.37-2.66V541.63a3.74,3.74,0,0,0-1.1-2.65l-66.27-64.53A3.74,3.74,0,0,0,836,477.1v18.23A3.74,3.74,0,0,0,837.07,498Z"/><path class="cls-2" d="M663.93,306.06l66.27,64.12a3.74,3.74,0,0,0,6.37-2.66V349.7a3.74,3.74,0,0,0-1.1-2.65L669.2,282.51a3.74,3.74,0,0,0-6.38,2.65V303.4A3.74,3.74,0,0,0,663.93,306.06Z"/><path class="cls-2" d="M837.07,646.73l66.27,64.12a3.74,3.74,0,0,0,6.37-2.66V615.66a3.74,3.74,0,0,0-1.1-2.65l-66.27-64.53a3.74,3.74,0,0,0-6.38,2.65v92.95A3.74,3.74,0,0,0,837.07,646.73Z"/><path class="cls-9" d="M836.67,391l85.14,81.84a5.91,5.91,0,0,0,10.07-4.2V234.11a5.91,5.91,0,0,0-1.74-4.19L845,147.43a5.91,5.91,0,0,0-10.08,4.19V386.78A5.91,5.91,0,0,0,836.67,391Z"/><path class="cls-2" d="M847.63,229.53l66.27,64.12a3.74,3.74,0,0,0,6.37-2.66V273.16a3.74,3.74,0,0,0-1.1-2.65L852.9,206a3.74,3.74,0,0,0-6.38,2.65v18.23A3.74,3.74,0,0,0,847.63,229.53Z"/></g></svg>